<svg xmlns="http://www.w3.org/2000/svg" version="1.1" xmlns:xlink="http://www.w3.org/1999/xlink" xmlns:svgjs="http://svgjs.dev/svgjs" width="1000" height="212" viewBox="0 0 1000 212"><g transform="matrix(1,0,0,1,-0.6060606060606233,-0.022853326914571426)"><svg viewBox="0 0 396 84" data-background-color="#fefee2" preserveAspectRatio="xMidYMid meet" height="212" width="1000" xmlns="http://www.w3.org/2000/svg" xmlns:xlink="http://www.w3.org/1999/xlink"><g id="tight-bounds" transform="matrix(1,0,0,1,0.2400000000000091,0.00905509179634123)"><svg viewBox="0 0 395.52 83.98188981640733" height="83.98188981640733" width="395.52"><g><svg viewBox="0 0 395.52 83.98188981640733" height="83.98188981640733" width="395.52"><g transform="matrix(1,0,0,1,0,51.90417709286251)"><svg viewBox="0 0 395.52 32.07771272354482" height="32.07771272354482" width="395.52"><g id="textblocktransform"><svg viewBox="0 0 395.52 32.07771272354482" height="32.07771272354482" width="395.52" id="textblock"><g><svg viewBox="0 0 395.52 32.07771272354482" height="32.07771272354482" width="395.52"><g transform="matrix(1,0,0,1,0,0)"><svg width="395.52" viewBox="0.25 -35 438.92 35.6" height="32.07771272354482" data-palette-color="#07ccec"><path d="M41.7 0L29.55 0 25.1-20.95 24.9-20.95 20.45 0 8.3 0 0.25-34.4 11.75-34.4 15.7-14.9 15.9-14.9 19.8-34.4 30.7-34.4 34.85-14.9 35.05-14.9 38.75-34.4 49.75-34.4 41.7 0ZM53.7 0L53.7-34.4 83.45-34.4 83.45-26.15 64.75-26.15 64.75-21.4 80.75-21.4 80.75-13.5 64.75-13.5 64.75-8.25 83.8-8.25 83.8 0 53.7 0ZM89.8 0L89.8-34.4 119.55-34.4 119.55-26.15 100.84-26.15 100.84-21.4 116.84-21.4 116.84-13.5 100.84-13.5 100.84-8.25 119.9-8.25 119.9 0 89.8 0ZM158.54-23.85Q158.54-20.7 156.84-18.15 155.14-15.6 151.89-14.4L151.89-14.4 159.54 0 147.14 0 141.04-12.55 136.94-12.55 136.94 0 125.89 0 125.89-34.4 146.94-34.4Q150.64-34.4 153.27-32.98 155.89-31.55 157.22-29.13 158.54-26.7 158.54-23.85L158.54-23.85ZM147.29-23.4Q147.29-24.75 146.39-25.65 145.49-26.55 144.19-26.55L144.19-26.55 136.94-26.55 136.94-20.2 144.19-20.2Q145.49-20.2 146.39-21.13 147.29-22.05 147.29-23.4L147.29-23.4ZM181.04-35Q189.94-35 194.79-30.45 199.64-25.9 199.64-17.2L199.64-17.2Q199.64-8.5 194.79-3.95 189.94 0.6 181.04 0.6L181.04 0.6Q172.14 0.6 167.31-3.93 162.49-8.45 162.49-17.2L162.49-17.2Q162.49-25.95 167.31-30.48 172.14-35 181.04-35L181.04-35ZM181.04-26.75Q177.49-26.75 175.64-24.6 173.79-22.45 173.79-18.8L173.79-18.8 173.79-15.6Q173.79-11.95 175.64-9.8 177.49-7.65 181.04-7.65L181.04-7.65Q184.59-7.65 186.47-9.8 188.34-11.95 188.34-15.6L188.34-15.6 188.34-18.8Q188.34-22.45 186.47-24.6 184.59-26.75 181.04-26.75L181.04-26.75ZM237.14-34.4Q255.19-34.4 255.19-17.2L255.19-17.2Q255.19 0 237.14 0L237.14 0 222.24 0 222.24-34.4 237.14-34.4ZM233.29-26.15L233.29-8.25 236.94-8.25Q243.89-8.25 243.89-15.7L243.89-15.7 243.89-18.7Q243.89-26.15 236.94-26.15L236.94-26.15 233.29-26.15ZM261.13 0L261.13-34.4 290.88-34.4 290.88-26.15 272.18-26.15 272.18-21.4 288.18-21.4 288.18-13.5 272.18-13.5 272.18-8.25 291.23-8.25 291.23 0 261.13 0ZM331.48 0L321.83 0 307.38-16.7 307.38 0 297.23 0 297.23-34.4 306.88-34.4 321.33-17.45 321.33-34.4 331.48-34.4 331.48 0ZM369.93-25.6L358.68-25.6 358.68 0 347.63 0 347.63-25.6 336.33-25.6 336.33-34.4 369.93-34.4 369.93-25.6ZM406.33 0L394.63 0 393.18-4.85 381.13-4.85 379.68 0 368.38 0 380.93-34.4 393.78-34.4 406.33 0ZM387.08-24.8L383.43-12.55 390.88-12.55 387.28-24.8 387.08-24.8ZM410.47 0L410.47-34.4 421.52-34.4 421.52-8.8 439.17-8.8 439.17 0 410.47 0Z" opacity="1" transform="matrix(1,0,0,1,0,0)" fill="#ffffff" class="undefined-text-0" data-fill-palette-color="primary" id="text-0"></path></svg></g></svg></g></svg></g></svg></g><g transform="matrix(1,0,0,1,167.40995351217617,0)"><svg viewBox="0 0 60.70009297564762 44.331398983938946" height="44.331398983938946" width="60.70009297564762"><g><svg xmlns="http://www.w3.org/2000/svg" xmlns:xlink="http://www.w3.org/1999/xlink" version="1.1" x="8" y="0" viewBox="0.29600000000000015 0.558 63.407999999999994 62.885" enable-background="new 0 0 64 64" xml:space="preserve" height="44.331398983938946" width="44.70009297564762" class="icon-icon-0" data-fill-palette-color="accent" id="icon-0"><g fill="#07ccec" data-fill-palette-color="accent"><path fill="#ffffff" d="M44.067 63.442L44.067 63.442c-0.057 0-0.114-0.001-0.172-0.003-2.439-0.081-4.503-1.707-5.142-4.046-0.07-0.254-0.139-0.513-0.205-0.765-0.073-0.278-0.145-0.548-0.218-0.805-0.578-2.044-1.024-4.07-1.42-5.954-0.398-1.896-0.702-3.817-0.996-5.675-0.294-1.86-0.598-3.784-0.991-5.627-0.253-1.181-0.818-2.402-1.549-3.348-0.377-0.487-0.861-0.795-1.374-0.878-0.514 0.083-0.997 0.392-1.377 0.881-0.728 0.943-1.293 2.164-1.547 3.348-0.393 1.84-0.697 3.764-0.991 5.624-0.294 1.858-0.598 3.779-0.996 5.675-0.396 1.885-0.842 3.912-1.42 5.954-0.073 0.258-0.144 0.529-0.218 0.806-0.067 0.252-0.135 0.51-0.207 0.771-0.637 2.333-2.702 3.959-5.136 4.04-0.062 0.002-0.119 0.003-0.176 0.003-2.127 0-4.087-1.242-4.993-3.164-0.74-1.563-1.403-2.977-2.026-4.446-0.634-1.495-1.262-3.015-1.869-4.484C8.855 46.05 6.592 40.571 3.74 35.521c-2.257-3.995-3.383-8.592-3.443-14.054l-0.001-0.103 0.009-0.102c0.035-0.424 0.066-0.848 0.097-1.273 0.068-0.943 0.138-1.918 0.261-2.898C1.331 11.799 3.64 7.562 7.525 4.496c3.307-2.613 7.134-3.938 11.375-3.938 2.076 0 4.291 0.321 6.585 0.954 2.208 0.61 4.4 0.926 6.515 0.939 2.115-0.013 4.307-0.329 6.515-0.939 2.294-0.633 4.509-0.954 6.585-0.954 4.241 0 8.069 1.325 11.376 3.939 3.884 3.065 6.193 7.302 6.861 12.592 0.123 0.984 0.194 1.961 0.262 2.905 0.03 0.423 0.061 0.846 0.096 1.269l0.009 0.102-0.001 0.103c-0.06 5.461-1.187 10.058-3.444 14.054-2.851 5.05-5.115 10.529-7.304 15.827-0.607 1.47-1.235 2.989-1.868 4.483-0.622 1.466-1.286 2.882-2.028 4.449C48.154 62.2 46.194 63.442 44.067 63.442zM32 31.967l0.156 0.011c1.822 0.131 3.478 1.046 4.663 2.576 1.133 1.466 1.971 3.277 2.363 5.101 0.418 1.958 0.732 3.941 1.034 5.858 0.285 1.805 0.581 3.671 0.956 5.46 0.38 1.809 0.806 3.747 1.348 5.664 0.079 0.28 0.157 0.575 0.237 0.878 0.063 0.237 0.127 0.48 0.194 0.724 0.132 0.484 0.577 0.83 1.083 0.847l0.032 0c0.45 0 0.864-0.262 1.055-0.667 0.722-1.525 1.366-2.898 1.956-4.288 0.625-1.475 1.249-2.985 1.853-4.446 2.239-5.419 4.555-11.024 7.537-16.306 1.873-3.317 2.815-7.197 2.88-11.861-0.033-0.404-0.062-0.808-0.091-1.212-0.067-0.929-0.13-1.807-0.239-2.675-0.527-4.172-2.241-7.351-5.239-9.717-2.556-2.02-5.394-3.001-8.677-3.001-1.684 0-3.51 0.268-5.426 0.797-2.582 0.713-5.16 1.082-7.662 1.096h-0.025c-2.502-0.014-5.08-0.383-7.662-1.096C22.41 5.181 20.584 4.913 18.9 4.913c-3.283 0-6.121 0.981-8.676 3-2.999 2.367-4.713 5.546-5.241 9.721-0.108 0.864-0.172 1.74-0.238 2.668-0.029 0.406-0.059 0.811-0.092 1.217 0.064 4.663 1.007 8.544 2.88 11.86 2.982 5.283 5.298 10.886 7.537 16.306 0.604 1.461 1.228 2.971 1.853 4.447 0.591 1.392 1.235 2.765 1.955 4.285 0.192 0.408 0.606 0.67 1.056 0.67l0.037-0.001c0.501-0.017 0.945-0.362 1.076-0.841 0.069-0.25 0.133-0.493 0.196-0.73 0.08-0.303 0.158-0.598 0.238-0.879 0.542-1.916 0.968-3.854 1.348-5.664 0.376-1.789 0.671-3.655 0.956-5.46 0.303-1.917 0.617-3.9 1.034-5.856 0.392-1.827 1.231-3.638 2.361-5.101 1.187-1.532 2.843-2.447 4.665-2.578L32 31.967z" data-fill-palette-color="accent"></path><path fill="#ffffff" d="M14.618 37.255c-0.633 0-1.248-0.332-1.582-0.923-0.303-0.537-0.605-1.057-0.9-1.565-2.244-3.869-4.364-7.524-3.689-12.862 0.525-4.151 2.338-7.476 5.388-9.883 3.88-3.066 8.622-3.854 14.091-2.344 1.713 0.473 3.413 0.718 5.052 0.727 1.618-0.009 3.318-0.254 5.031-0.727 0.967-0.266 1.965 0.3 2.232 1.266 0.267 0.966-0.3 1.965-1.266 2.232-2.021 0.558-4.038 0.847-5.997 0.858-1.98-0.011-3.998-0.3-6.018-0.858-4.353-1.202-7.911-0.648-10.875 1.694-2.309 1.823-3.63 4.273-4.036 7.49-0.521 4.122 1.051 6.834 3.228 10.586 0.302 0.521 0.61 1.053 0.92 1.601 0.493 0.873 0.185 1.98-0.688 2.472C15.227 37.179 14.92 37.255 14.618 37.255z" data-fill-palette-color="accent"></path></g></svg></g></svg></g><g><rect width="167.40995351217617" height="2.892801237608803" y="40.438597746330146" x="228.1100464878238" fill="#ffffff" data-fill-palette-color="accent"></rect><rect width="167.40995351217617" height="2.892801237608803" y="40.438597746330146" x="0" fill="#ffffff" data-fill-palette-color="accent"></rect><rect width="167.40995351217617" height="2.892801237608803" y="34.65299527111254" x="228.1100464878238" fill="#ffffff" data-fill-palette-color="accent"></rect><rect width="167.40995351217617" height="2.892801237608803" y="34.65299527111254" x="0" fill="#ffffff" data-fill-palette-color="accent"></rect></g></svg></g><defs></defs></svg><rect width="395.52" height="83.98188981640733" fill="none" stroke="none" visibility="hidden"></rect></g></svg></g></svg>